<?xml version="1.0" encoding="UTF-8"?>
<svg width="250px" height="60px" viewBox="0 0 250 60" version="1.1" xmlns="http://www.w3.org/2000/svg" xmlns:xlink="http://www.w3.org/1999/xlink">
    <!-- Generator: Sketch 45.2 (43514) - http://www.bohemiancoding.com/sketch -->
    <title>Button</title>
    <desc>Created with Sketch.</desc>
    <defs></defs>
    <g id="Page-1" stroke="none" stroke-width="1" fill="none" fill-rule="evenodd">
        <g id="Mobile" transform="translate(-62.000000, -1439.000000)">
            <g id="Video-Block" transform="translate(28.000000, 1090.000000)">
                <g id="Button" transform="translate(34.000000, 349.000000)">
                    <rect id="btn" stroke="#FFFFFF" x="0.5" y="0.5" width="249" height="59"></rect>
                    <text id="скачать-для-iOS" font-family="BebasNeueCyrillic, Bebas Neue Cyrillic" font-size="20" font-weight="normal" letter-spacing="2.22222233" fill="#FFFFFF">
                        <tspan x="69.1533325" y="37">скачать для iOS</tspan>
                    </text>
                    <path d="M51.5280356,29.7880507 C51.5047929,27.4551107 53.4306261,26.3362594 53.5166528,26.2806713 C52.4345725,24.6972181 50.7489378,24.4802983 50.1482618,24.4552206 C48.7137273,24.3099718 47.3491367,25.299801 46.6210937,25.299801 C45.8948855,25.299801 44.7714289,24.4767003 43.5816982,24.498324 C42.0181056,24.5215666 40.5763753,25.4074873 39.7712643,26.8078414 C38.1467227,29.626827 39.3552346,33.8029555 40.9386158,36.0891942 C41.7123168,37.2082974 42.6349004,38.4652016 43.8462187,38.4202993 C45.0127067,38.3737419 45.4538141,37.6654875 46.8640985,37.6654875 C48.2743469,37.6654875 48.6708039,38.4202993 49.9052209,38.3971286 C51.1604701,38.3738139 51.9557227,37.2566177 52.7240987,36.1340965 C53.6125739,34.835816 53.9784124,33.5788758 54,33.5143648 C53.972116,33.5016281 51.5522857,32.5746189 51.5280356,29.7880507 Z M49.2085159,22.9417114 C49.8514318,22.1617141 50.2853792,21.0795618 50.167007,20 C49.2409334,20.0377064 48.1184122,20.6168667 47.4539807,21.3951011 C46.8578021,22.0854737 46.335921,23.1873427 46.4757729,24.2453168 C47.5096048,24.3259826 48.5649165,23.7199457 49.2085159,22.9417114 Z" id="Shape" fill="#FFFFFF" fill-rule="nonzero"></path>
                </g>
            </g>
        </g>
    </g>
</svg>