<?xml version="1.0" encoding="UTF-8"?>
<svg width="230px" height="30px" viewBox="0 0 230 30" version="1.1" xmlns="http://www.w3.org/2000/svg" xmlns:xlink="http://www.w3.org/1999/xlink">
    <!-- Generator: Sketch 45.2 (43514) - http://www.bohemiancoding.com/sketch -->
    <title>App Logtype</title>
    <desc>Created with Sketch.</desc>
    <defs></defs>
    <g id="Page-1" stroke="none" stroke-width="1" fill="none" fill-rule="evenodd">
        <g id="Mobile" transform="translate(-70.000000, -208.000000)">
            <g id="Header">
                <g id="Title" transform="translate(70.000000, 208.000000)">
                    <g id="App-Logtype">
                        <path d="M0.0492294521,0.598404255 L4.87371575,0.598404255 L4.87371575,30 L0.0492294521,30 L0.0492294521,0.598404255 Z M43.6008847,30 L38.7763984,30 L38.7763984,18.231383 L33.9190925,18.231383 L33.9190925,30 L29.0946062,30 L29.0946062,3.5106383 C29.0946062,2.71276197 29.3352811,2.02127952 29.8166381,1.43617021 C30.2761153,0.877656782 30.8449833,0.598404255 31.5232591,0.598404255 L41.2050514,0.598404255 C41.8614473,0.598404255 42.4303153,0.877656782 42.9116724,1.43617021 C43.3711496,2.02127952 43.6008847,2.71276197 43.6008847,3.5106383 L43.6008847,30 Z M38.7763984,12.3670213 L38.7763984,6.46276596 L33.9190925,6.46276596 L33.9190925,12.3670213 L38.7763984,12.3670213 Z M72.6462614,3.5106383 L72.6462614,30 L67.8217751,30 L67.8217751,6.46276596 L62.9644692,6.46276596 L62.9644692,30 L58.1399829,30 L58.1399829,6.46276596 L53.2826769,6.46276596 L53.2826769,30 L48.4581906,30 L48.4581906,3.5106383 C48.4581906,2.71276197 48.6988656,2.02127952 49.1802226,1.43617021 C49.6396998,0.877656782 50.2085678,0.598404255 50.8868436,0.598404255 L58.1399829,0.598404255 C58.8182587,0.598404255 59.3871267,0.877656782 59.8466039,1.43617021 C60.3279609,2.02127952 60.5686358,2.71276197 60.5686358,3.5106383 C60.5686358,2.71276197 60.798371,2.02127952 61.2578482,1.43617021 C61.7392052,0.877656782 62.3080732,0.598404255 62.9644692,0.598404255 L70.2504281,0.598404255 C70.9068241,0.598404255 71.475692,0.877656782 71.9570491,1.43617021 C72.4165263,2.02127952 72.6462614,2.71276197 72.6462614,3.5106383 Z" id="I-AM-INVICTUS" fill="#FFFFFF"></path>
                        <polygon id="Path" fill="#BC4830" points="96.8671518 0.598404255 101.691638 0.598404255 101.691638 30 96.8671518 30"></polygon>
                        <path d="M121.055223,3.5106383 L121.055223,30 L116.230736,30 L116.230736,6.46276596 L111.37343,6.46276596 L111.37343,30 L106.548944,30 L106.548944,0.598404255 L118.659389,0.598404255 C119.315785,0.598404255 119.884653,0.877656782 120.36601,1.43617021 C120.825487,2.02127952 121.055223,2.71276197 121.055223,3.5106383 Z" id="Path" fill="#BC4830"></path>
                        <path d="M125.256136,0.598404255 L130.671376,0.598404255 C131.284012,4.13565598 132.498326,11.2366488 134.314355,21.9015957 C134.926991,18.364344 136.141306,11.2633512 137.957334,0.598404255 L143.372574,0.598404255 C142.278581,5.49204574 140.068748,15.2924797 136.743008,30 L131.885702,30 C130.791709,25.1063585 128.581875,15.3059246 125.256136,0.598404255 Z" id="Path" fill="#BC4830"></path>
                        <polygon id="Path" fill="#BC4830" points="147.540668 0.598404255 152.365154 0.598404255 152.365154 30 147.540668 30"></polygon>
                        <path d="M166.904252,9.41489362 L166.904252,6.46276596 L162.046946,6.46276596 L162.046946,24.1356383 L166.904252,24.1356383 L166.904252,21.1835106 L171.728739,21.1835106 L171.728739,27.0478723 C171.728739,27.8723445 171.499003,28.563827 171.039526,29.1223404 C170.558169,29.7074497 169.989301,30 169.332905,30 L159.651113,30 C158.972837,30 158.403969,29.7074497 157.944492,29.1223404 C157.463135,28.563827 157.22246,27.8723445 157.22246,27.0478723 L157.22246,3.5106383 C157.22246,2.71276197 157.463135,2.02127952 157.944492,1.43617021 C158.403969,0.877656782 158.972837,0.598404255 159.651113,0.598404255 L169.332905,0.598404255 C169.989301,0.598404255 170.558169,0.877656782 171.039526,1.43617021 C171.499003,2.02127952 171.728739,2.71276197 171.728739,3.5106383 L171.728739,9.41489362 L166.904252,9.41489362 Z" id="Path" fill="#BC4830"></path>
                        <polygon id="Path" fill="#BC4830" points="191.092323 0.598404255 176.586045 0.598404255 176.586045 6.46276596 181.410531 6.46276596 181.410531 30 186.267837 30 186.267837 6.46276596 191.092323 6.46276596"></polygon>
                        <path d="M210.455908,0.598404255 L210.455908,27.0478723 C210.455908,27.8723445 210.226172,28.563827 209.766695,29.1223404 C209.285338,29.7074497 208.71647,30 208.060074,30 L198.378282,30 C197.700006,30 197.131138,29.7074497 196.671661,29.1223404 C196.190304,28.563827 195.949629,27.8723445 195.949629,27.0478723 L195.949629,0.598404255 L200.774115,0.598404255 L200.774115,24.1356383 L205.631421,24.1356383 L205.631421,0.598404255 L210.455908,0.598404255 Z" id="Path" fill="#BC4830"></path>
                        <path d="M224.995006,9.41489362 L224.995006,6.46276596 L220.1377,6.46276596 L220.1377,12.3670213 L227.423659,12.3670213 C228.080055,12.3670213 228.648923,12.6462738 229.13028,13.2047872 C229.589757,13.7898965 229.819492,14.481379 229.819492,15.2792553 L229.819492,27.0478723 C229.819492,27.8723445 229.589757,28.563827 229.13028,29.1223404 C228.648923,29.7074497 228.080055,30 227.423659,30 L217.741866,30 C217.063591,30 216.494723,29.7074497 216.035245,29.1223404 C215.553888,28.563827 215.313213,27.8723445 215.313213,27.0478723 L215.313213,21.1835106 L220.1377,21.1835106 L220.1377,24.1356383 L224.995006,24.1356383 L224.995006,18.231383 L217.741866,18.231383 C217.063591,18.231383 216.494723,17.9521305 216.035245,17.393617 C215.553888,16.8085077 215.313213,16.1037275 215.313213,15.2792553 L215.313213,3.5106383 C215.313213,2.71276197 215.553888,2.02127952 216.035245,1.43617021 C216.494723,0.877656782 217.063591,0.598404255 217.741866,0.598404255 L227.423659,0.598404255 C228.080055,0.598404255 228.648923,0.877656782 229.13028,1.43617021 C229.589757,2.02127952 229.819492,2.71276197 229.819492,3.5106383 L229.819492,9.41489362 L224.995006,9.41489362 Z" id="Path" fill="#BC4830"></path>
                    </g>
                </g>
            </g>
        </g>
    </g>
</svg>